<?xml version="1.0" encoding="UTF-8" standalone="no"?>
<svg
   fill="none"
   height="46"
   width="45"
   version="1.1"
   id="svg3"
   sodipodi:docname="yep html.svg"
   inkscape:version="1.3.2 (091e20ef0f, 2023-11-25)"
   xmlns:inkscape="http://www.inkscape.org/namespaces/inkscape"
   xmlns:sodipodi="http://sodipodi.sourceforge.net/DTD/sodipodi-0.dtd"
   xmlns="http://www.w3.org/2000/svg"
   xmlns:svg="http://www.w3.org/2000/svg">
  <defs
     id="defs3" />
  <sodipodi:namedview
     id="namedview3"
     pagecolor="#505050"
     bordercolor="#eeeeee"
     borderopacity="1"
     inkscape:showpageshadow="0"
     inkscape:pageopacity="0"
     inkscape:pagecheckerboard="0"
     inkscape:deskcolor="#505050"
     inkscape:zoom="16.727997"
     inkscape:cx="32.580111"
     inkscape:cy="22.058827"
     inkscape:window-width="1280"
     inkscape:window-height="956"
     inkscape:window-x="26"
     inkscape:window-y="23"
     inkscape:window-maximized="0"
     inkscape:current-layer="svg3" />
  <path
     d="M 0,18.564 C 0,29.198 8.75,34.88 20.601,34.88 h 1.793 V 46 C 34.821,42.415 44.788,30.626 44.788,18.564 44.788,7.474 35.702,0 22.394,0 9.085,0 0,7.474 0,18.564 Z"
     fill="#fff238"
     id="path1"
     sodipodi:nodetypes="ssccsss"
     style="display:inline" />
  <path
     d="m 33.42,12.124 c -3.043,0 -5.217,2.202 -5.217,5.259 0.056,1.065 0.267,2.019 1.164,4.43 l 1.64,4.417 2.286,-0.743 -1.164,-3.197 c 0.45,0.21 1.052,0.323 1.585,0.323 2.678,0 4.922,-2.258 4.922,-5.23 0,-2.973 -2.216,-5.258 -5.217,-5.258 z m -0.029,8.02 c -1.528,0 -2.664,-1.135 -2.664,-2.733 0,-1.599 1.136,-2.749 2.665,-2.749 1.528,0 2.706,1.164 2.706,2.749 0,1.584 -1.164,2.734 -2.706,2.734 z m -18.341,-7.388 -2.524,0.828 0.322,6.646 c -0.911,0.393 -1.304,-0.028 -1.879,-0.912 L 8.137,14.93 5.557,15.785 8.88,20.917 c 0.911,1.346 2.454,2.061 4.095,1.43 0.098,1.262 -0.45,1.977 -1.459,1.977 a 1.77,1.77 0 0 1 -1.64,-1.08 l -2.202,0.744 c 1.15,2.355 2.889,2.594 3.814,2.594 2.02,0 4.109,-1.487 3.955,-4.683 z m 6.801,7.474 c -0.855,0 -1.696,-0.35 -2.145,-1.136 l 7.418,-2.468 c -0.35,-2.706 -2.412,-4.5 -5.188,-4.5 -3.03,0 -5.23,2.2 -5.23,5.258 0,3.056 2.2,5.23 5.23,5.23 3.028,0 5.188,-2.146 5.258,-5.09 l -2.664,0.897 c -0.253,1.164 -1.515,1.81 -2.679,1.81 z m 0.155,-5.833 c 0.813,0 1.64,0.322 2.117,1.164 l -4.922,1.598 c 0,-1.626 1.22,-2.762 2.805,-2.762 z"
     fill="#000000"
     id="path2"
     style="display:inline" />
  <g
     id="g24"
     style="fill:#000000;fill-opacity:1">
    <path
       d="m 27.695312,43.904297 c -0.252804,0.12768 -0.505571,0.25611 -0.761718,0.376953 0.115134,0.0071 0.227246,-0.0072 0.330078,-0.06641 l 0.248047,-0.142578 c 0.07526,-0.04335 0.135774,-0.10108 0.183593,-0.167969 z"
       style="font-size:10.6667px;font-family:'Noto Sans Mono CJK JP';-inkscape-font-specification:'Noto Sans Mono CJK JP';letter-spacing:0.52px;fill:#000000;fill-rule:evenodd;stroke-width:0.5;stroke-linecap:round;paint-order:markers fill stroke;fill-opacity:1"
       id="path24" />
    <path
       d="m 31.496094,41.644531 c -0.234802,0.161975 -0.4719,0.320659 -0.710938,0.476563 0.08284,-0.0075 0.164132,-0.02843 0.240235,-0.07227 l 0.248046,-0.144531 C 31.38,41.842914 31.44803,41.751089 31.496094,41.644531 Z"
       style="font-size:10.6667px;font-family:'Noto Sans Mono CJK JP';-inkscape-font-specification:'Noto Sans Mono CJK JP';letter-spacing:0.52px;fill:#000000;fill-rule:evenodd;stroke-width:0.5;stroke-linecap:round;paint-order:markers fill stroke;fill-opacity:1"
       id="path22" />
    <path
       d="m 39.378906,34.001953 c -0.190096,0.259549 -0.383538,0.517058 -0.582031,0.771484 0.01012,-0.002 0.01907,5.07e-4 0.0293,-0.002 0.16622,-0.03999 0.293515,-0.130036 0.378906,-0.269531 l 0.09961,-0.164062 c 0.06369,-0.104051 0.08028,-0.217017 0.07422,-0.335938 z"
       style="font-size:10.6667px;font-family:'Noto Sans Mono CJK JP';-inkscape-font-specification:'Noto Sans Mono CJK JP';letter-spacing:0.52px;fill:#000000;fill-rule:evenodd;stroke-width:0.5;stroke-linecap:round;paint-order:markers fill stroke;fill-opacity:1"
       id="path19" />
    <path
       d="m 42.414062,28.873047 c -0.138146,0.298991 -0.2787,0.597415 -0.427734,0.892578 0.1006,-0.04889 0.18775,-0.114389 0.248047,-0.212891 l 0.121094,-0.199218 c 0.08539,-0.139495 0.108349,-0.292764 0.06836,-0.458985 -0.002,-0.0082 -0.0075,-0.01347 -0.0098,-0.02148 z"
       style="font-size:10.6667px;font-family:'Noto Sans Mono CJK JP';-inkscape-font-specification:'Noto Sans Mono CJK JP';letter-spacing:0.52px;fill:#000000;fill-rule:evenodd;stroke-width:0.5;stroke-linecap:round;paint-order:markers fill stroke;fill-opacity:1"
       id="path17" />
    <path
       d="m 44.496094,22.148437 c -0.229937,1.436872 -0.591818,2.857806 -1.076172,4.25 0.0715,-0.07262 0.129607,-0.153024 0.15625,-0.255859 l 0.947265,-3.65625 c 0.03065,-0.118316 0.01432,-0.229552 -0.02734,-0.337891 z"
       style="font-size:10.6667px;font-family:'Noto Sans Mono CJK JP';-inkscape-font-specification:'Noto Sans Mono CJK JP';letter-spacing:0.52px;fill:#000000;fill-rule:evenodd;stroke-width:0.5;stroke-linecap:round;paint-order:markers fill stroke;fill-opacity:1"
       id="path15" />
    <path
       d="m 31.496094,41.644531 c 0.01586,-0.03516 0.03934,-0.06539 0.04883,-0.105469 0.04441,-0.165093 0.025,-0.317259 -0.05664,-0.458984 l -3.279297,-5.693359 c -0.08164,-0.141725 -0.206,-0.234884 -0.371093,-0.279297 -0.158932,-0.04796 -0.309447,-0.03281 -0.451172,0.04883 l -0.248047,0.144531 c -0.141725,0.08164 -0.234884,0.206 -0.279297,0.371094 -0.04441,0.165094 -0.02695,0.31726 0.05469,0.458984 l 1.208985,2.097657 c 0.02839,0.0493 0.01805,0.08879 -0.03125,0.117187 l -2.310547,1.332031 c -0.0493,0.0284 -0.08879,0.01805 -0.117188,-0.03125 l -1.207031,-2.099609 c -0.08164,-0.141725 -0.206,-0.234884 -0.371094,-0.279297 -0.165093,-0.04441 -0.319212,-0.025 -0.460937,0.05664 l -0.248047,0.144531 c -0.141725,0.08164 -0.234884,0.204047 -0.279297,0.369141 -0.03825,0.161544 -0.01718,0.313353 0.06445,0.455078 l 3.279297,5.693359 c 0.08164,0.141725 0.202397,0.237194 0.361328,0.285156 0.04531,0.01219 0.08731,0.0071 0.13086,0.0098 0.256147,-0.120843 0.508914,-0.249273 0.761718,-0.376953 0.04223,-0.05907 0.07488,-0.125704 0.0957,-0.203125 0.04441,-0.165094 0.02695,-0.319213 -0.05469,-0.460938 l -1.412109,-2.449218 c -0.03195,-0.05546 -0.02195,-0.0966 0.02734,-0.125 l 2.310547,-1.332032 c 0.0493,-0.0284 0.08915,-0.01444 0.121094,0.04102 l 1.412109,2.449219 c 0.08164,0.141725 0.204048,0.234884 0.369141,0.279297 0.07644,0.02056 0.149271,0.02404 0.220703,0.01758 0.239038,-0.155904 0.476136,-0.314588 0.710938,-0.476563 z"
       style="display:inline;fill:#000000;fill-opacity:1"
       id="path23" />
    <path
       d="m 35.576172,38.328125 c 0.107272,-0.109386 0.167231,-0.242166 0.171875,-0.404297 0.0049,-0.170893 -0.04982,-0.316632 -0.16211,-0.435547 l -4.013671,-4.25 c -0.04394,-0.04653 -0.04527,-0.08985 -0.0039,-0.128906 l 1.041016,-0.980469 c 0.118915,-0.112293 0.181629,-0.252246 0.191406,-0.417969 0.0049,-0.170892 -0.04786,-0.314678 -0.160156,-0.433593 l -0.02148,-0.02344 c -0.112293,-0.118915 -0.254889,-0.180652 -0.425782,-0.185547 -0.170893,-0.0049 -0.314678,0.04786 -0.433593,0.160157 l -3.304688,3.121093 c -0.118915,0.112293 -0.180652,0.252936 -0.185547,0.423828 -0.0049,0.170893 0.04786,0.316632 0.160156,0.435547 l 0.02344,0.02344 c 0.112293,0.118915 0.252935,0.180652 0.423828,0.185547 0.166011,-2.76e-4 0.308819,-0.05763 0.427734,-0.169922 l 1.039063,-0.980469 c 0.04136,-0.03906 0.08497,-0.03677 0.128906,0.0098 l 4.011719,4.25 c 0.112293,0.118915 0.254888,0.182605 0.425781,0.1875 0.162179,0.0046 0.298696,-0.04754 0.414063,-0.148438 0.08457,-0.079 0.168264,-0.158454 0.251953,-0.238281 z"
       style="display:inline;fill:#000000;fill-opacity:1"
       id="path21" />
    <path
       d="m 35.576172,38.328125 c -0.08369,0.07983 -0.167385,0.159281 -0.251953,0.238281 0.0062,-0.0054 0.01347,-0.0079 0.01953,-0.01367 l 0.21875,-0.205078 c 0.0061,-0.0058 0.0079,-0.01362 0.01367,-0.01953 z"
       style="display:inline;fill:#000000;fill-opacity:1"
       id="path20" />
    <path
       d="m 42.414062,28.873047 c -0.04269,-0.15421 -0.12521,-0.274297 -0.257812,-0.355469 l -5.605469,-3.429687 c -0.139495,-0.08539 -0.292764,-0.10835 -0.458984,-0.06836 -0.16622,0.03999 -0.291562,0.128083 -0.376953,0.267578 l -0.160157,0.265625 c -0.09653,0.15769 -0.143856,0.328265 -0.140625,0.513672 0.0032,0.185408 0.05584,0.352006 0.158204,0.498047 l 2.464843,3.697266 c 0.0061,0.0037 0.0057,0.0076 0.002,0.01367 -0.0037,0.0061 -0.0076,0.0076 -0.01367,0.0039 l -4.414063,-0.513672 c -0.176622,-0.02474 -0.347083,0.0045 -0.513672,0.08594 -0.166588,0.08145 -0.298002,0.199732 -0.394531,0.357422 L 32.5625,30.4375 c -0.08539,0.139495 -0.108349,0.292764 -0.06836,0.458984 0.03999,0.166221 0.130036,0.291562 0.269531,0.376953 l 5.605469,3.429688 c 0.130915,0.08014 0.27328,0.100605 0.427734,0.07031 0.198493,-0.254426 0.391935,-0.511935 0.582031,-0.771484 -0.0021,-0.04051 0.0043,-0.07886 -0.0059,-0.121094 -0.03999,-0.16622 -0.130036,-0.293515 -0.269531,-0.378906 l -3.957032,-2.421875 c -0.0061,-0.0037 -0.0076,-0.0076 -0.0039,-0.01367 0.0037,-0.0061 0.0076,-0.0076 0.01367,-0.0039 l 3.007812,0.339844 c 0.180335,0.01868 0.356644,-0.0121 0.529297,-0.08984 0.170302,-0.08752 0.301715,-0.205797 0.394532,-0.357422 l 0.0332,-0.05469 c 0.09282,-0.151625 0.137997,-0.320452 0.134765,-0.50586 -0.0056,-0.195185 -0.05759,-0.369378 -0.15625,-0.521484 l -1.669922,-2.523438 c -0.0061,-0.0037 -0.0076,-0.0076 -0.0039,-0.01367 0.0037,-0.0061 0.0096,-0.0076 0.01563,-0.0039 l 3.957031,2.421875 c 0.139496,0.08539 0.292765,0.108349 0.458985,0.06836 0.04885,-0.01175 0.08704,-0.0363 0.128906,-0.05664 0.149034,-0.295163 0.289588,-0.593587 0.427734,-0.892578 z"
       style="display:inline;fill:#000000;fill-opacity:1"
       id="path18" />
    <path
       d="m 44.496094,22.148437 c -0.01409,-0.03664 -0.02061,-0.07388 -0.04297,-0.109375 -0.08671,-0.147344 -0.210812,-0.242182 -0.369141,-0.283203 l -0.03125,-0.0078 c -0.158328,-0.04102 -0.306804,-0.01818 -0.447265,0.07031 -0.145562,0.07982 -0.238276,0.199094 -0.279297,0.357422 l -0.6875,2.654297 c -0.01427,0.05507 -0.05328,0.07465 -0.115235,0.05859 l -5.658203,-1.466797 c -0.158328,-0.04102 -0.311639,-0.01835 -0.458984,0.06836 -0.147345,0.08671 -0.240229,0.210813 -0.28125,0.369141 l -0.08594,0.330078 c -0.04102,0.158328 -0.01835,0.309687 0.06836,0.457031 0.08849,0.140461 0.210812,0.232417 0.36914,0.273438 l 6.361329,1.648437 c 0.158328,0.04102 0.309516,0.02123 0.455078,-0.05859 0.05164,-0.03039 0.08837,-0.07214 0.126953,-0.111329 0.484354,-1.392194 0.846235,-2.813128 1.076172,-4.25 z"
       style="display:inline;fill:#000000;fill-opacity:1"
       id="path16" />
  </g>
</svg>
